<?xml version="1.0" encoding="UTF-8" standalone="no"?>
<svg
   xmlns:dc="http://purl.org/dc/elements/1.1/"
   xmlns:cc="http://creativecommons.org/ns#"
   xmlns:rdf="http://www.w3.org/1999/02/22-rdf-syntax-ns#"
   xmlns:svg="http://www.w3.org/2000/svg"
   xmlns="http://www.w3.org/2000/svg"
   xmlns:sodipodi="http://sodipodi.sourceforge.net/DTD/sodipodi-0.dtd"
   xmlns:inkscape="http://www.inkscape.org/namespaces/inkscape"
   id="svg"
   version="1.1"
   width="400"
   height="400"
   viewBox="0, 0, 400,400"
   sodipodi:docname="icon.svg"
   inkscape:version="1.0.1 (3bc2e813f5, 2020-09-07)">
  <metadata
     id="metadata10">
    <rdf:RDF>
      <cc:Work
         rdf:about="">
        <dc:format>image/svg+xml</dc:format>
        <dc:type
           rdf:resource="http://purl.org/dc/dcmitype/StillImage" />
      </cc:Work>
    </rdf:RDF>
  </metadata>
  <defs
     id="defs8" />
  <sodipodi:namedview
     pagecolor="#ffffff"
     bordercolor="#666666"
     borderopacity="1"
     objecttolerance="10"
     gridtolerance="10"
     guidetolerance="10"
     inkscape:pageopacity="0"
     inkscape:pageshadow="2"
     inkscape:window-width="1916"
     inkscape:window-height="1055"
     id="namedview6"
     showgrid="false"
     inkscape:zoom="2.2075"
     inkscape:cx="200"
     inkscape:cy="199.547"
     inkscape:window-x="0"
     inkscape:window-y="21"
     inkscape:window-maximized="0"
     inkscape:current-layer="svg" />
  <g
     id="svgg">
    <path
       id="path0"
       d="M110.392 130.100 C 110.382 268.490,109.832 297.271,106.760 320.000 C 105.942 326.054,105.530 328.435,104.336 334.000 C 103.648 337.204,101.810 343.878,101.196 345.400 C 101.019 345.840,100.406 347.419,99.835 348.908 C 92.144 368.968,73.748 386.397,49.047 397.026 C 41.747 400.166,39.910 400.000,81.895 400.000 C 116.715 400.000,119.098 399.956,119.831 399.300 C 120.261 398.915,121.690 397.702,123.006 396.606 C 135.021 386.595,146.595 370.683,151.962 356.800 C 152.685 354.930,153.431 353.040,153.620 352.600 C 156.303 346.358,159.545 328.790,161.075 312.200 C 161.873 303.551,161.871 304.109,161.700 131.100 L 161.600 30.000 136.000 30.000 L 110.400 30.000 110.392 130.100 M252.186 30.497 C 252.081 30.774,252.041 103.810,252.098 192.800 L 252.200 354.600 277.800 354.600 L 303.400 354.600 303.400 192.400 L 303.400 30.200 277.889 30.097 C 257.691 30.016,252.337 30.099,252.186 30.497 "
       stroke="none"
       fill="#fafbf3"
       fill-rule="evenodd" />
    <path
       id="path1"
       d="M30.400 0.291 C 29.630 0.382,28.829 0.624,28.620 0.829 C 28.411 1.033,27.826 1.200,27.320 1.200 C 26.814 1.200,26.400 1.380,26.400 1.600 C 26.400 1.820,25.860 2.000,25.200 2.000 C 24.540 2.000,24.000 2.180,24.000 2.400 C 24.000 2.620,23.640 2.800,23.200 2.800 C 22.760 2.800,22.400 2.980,22.400 3.200 C 22.400 3.420,22.040 3.600,21.600 3.600 C 21.160 3.600,20.800 3.780,20.800 4.000 C 20.800 4.220,20.440 4.400,20.000 4.400 C 19.560 4.400,19.200 4.580,19.200 4.800 C 19.200 5.020,18.964 5.200,18.675 5.200 C 18.387 5.200,17.764 5.560,17.292 6.000 C 16.820 6.440,16.252 6.800,16.031 6.800 C 15.533 6.800,7.600 14.559,7.599 15.047 C 7.599 15.241,7.059 16.030,6.400 16.800 C 5.741 17.570,5.201 18.425,5.201 18.700 C 5.200 18.975,5.020 19.200,4.800 19.200 C 4.580 19.200,4.400 19.560,4.400 20.000 C 4.400 20.440,4.220 20.800,4.000 20.800 C 3.780 20.800,3.600 21.160,3.600 21.600 C 3.600 22.040,3.420 22.400,3.200 22.400 C 2.980 22.400,2.800 22.760,2.800 23.200 C 2.800 23.640,2.664 24.000,2.497 24.000 C 2.172 24.000,1.200 26.816,1.200 27.760 C 1.200 28.075,0.975 28.408,0.700 28.500 C -0.036 28.745,-0.036 371.255,0.700 371.500 C 0.975 371.592,1.200 372.091,1.200 372.610 C 1.200 373.128,1.380 373.664,1.600 373.800 C 1.820 373.936,2.000 374.487,2.000 375.024 C 2.000 375.561,2.180 376.000,2.400 376.000 C 2.620 376.000,2.800 376.360,2.800 376.800 C 2.800 377.240,2.980 377.600,3.200 377.600 C 3.420 377.600,3.600 377.960,3.600 378.400 C 3.600 378.840,3.780 379.200,4.000 379.200 C 4.220 379.200,4.400 379.560,4.400 380.000 C 4.400 380.440,4.580 380.800,4.800 380.800 C 5.020 380.800,5.200 381.025,5.201 381.300 C 5.201 381.575,5.741 382.430,6.400 383.200 C 7.059 383.970,7.599 384.741,7.599 384.913 C 7.600 385.086,8.185 385.848,8.900 386.606 C 9.615 387.365,10.577 388.394,11.037 388.893 C 12.375 390.343,14.751 392.400,15.089 392.401 C 15.260 392.401,16.030 392.941,16.800 393.600 C 17.570 394.259,18.425 394.799,18.700 394.799 C 18.975 394.800,19.200 394.980,19.200 395.200 C 19.200 395.420,19.560 395.600,20.000 395.600 C 20.440 395.600,20.800 395.780,20.800 396.000 C 20.800 396.220,21.160 396.400,21.600 396.400 C 22.040 396.400,22.400 396.580,22.400 396.800 C 22.400 397.020,22.760 397.200,23.200 397.200 C 23.640 397.200,24.000 397.380,24.000 397.600 C 24.000 397.820,24.540 398.000,25.200 398.000 C 25.860 398.000,26.400 398.180,26.400 398.400 C 26.400 398.620,26.814 398.800,27.320 398.800 C 27.826 398.800,28.459 399.019,28.727 399.287 C 29.581 400.141,44.686 400.275,44.862 399.430 C 44.947 399.023,46.562 398.095,49.047 397.026 C 73.748 386.397,92.144 368.968,99.835 348.908 C 100.406 347.419,101.019 345.840,101.196 345.400 C 101.863 343.746,103.750 336.844,104.422 333.600 C 104.673 332.390,105.031 330.680,105.218 329.800 C 105.600 328.001,106.158 324.457,106.760 320.000 C 109.832 297.271,110.382 268.490,110.392 130.100 L 110.400 30.000 136.000 30.000 L 161.600 30.000 161.700 131.100 C 161.871 304.109,161.873 303.551,161.075 312.200 C 159.545 328.790,156.303 346.358,153.620 352.600 C 153.431 353.040,152.685 354.930,151.962 356.800 C 146.595 370.683,135.021 386.595,123.006 396.606 C 118.388 400.454,102.495 400.024,244.899 399.905 C 344.942 399.822,370.863 399.697,371.260 399.300 C 371.535 399.025,372.163 398.800,372.656 398.800 C 373.149 398.800,373.664 398.620,373.800 398.400 C 373.936 398.180,374.487 398.000,375.024 398.000 C 375.561 398.000,376.000 397.820,376.000 397.600 C 376.000 397.380,376.360 397.200,376.800 397.200 C 377.240 397.200,377.600 397.020,377.600 396.800 C 377.600 396.580,377.960 396.400,378.400 396.400 C 378.840 396.400,379.200 396.220,379.200 396.000 C 379.200 395.780,379.520 395.600,379.912 395.600 C 380.303 395.600,380.883 395.240,381.200 394.800 C 381.517 394.360,382.057 394.000,382.400 394.000 C 382.743 394.000,383.283 393.640,383.600 393.200 C 383.917 392.760,384.412 392.400,384.699 392.400 C 385.793 392.400,392.400 385.793,392.400 384.699 C 392.400 384.412,392.760 383.917,393.200 383.600 C 393.640 383.283,394.000 382.743,394.000 382.400 C 394.000 382.057,394.360 381.517,394.800 381.200 C 395.240 380.883,395.600 380.303,395.600 379.912 C 395.600 379.520,395.780 379.200,396.000 379.200 C 396.220 379.200,396.400 378.840,396.400 378.400 C 396.400 377.960,396.580 377.600,396.800 377.600 C 397.020 377.600,397.200 377.240,397.200 376.800 C 397.200 376.360,397.380 376.000,397.600 376.000 C 397.820 376.000,398.000 375.561,398.000 375.024 C 398.000 374.487,398.180 373.936,398.400 373.800 C 398.620 373.664,398.800 373.149,398.800 372.656 C 398.800 372.163,399.025 371.535,399.300 371.260 C 400.036 370.524,400.036 29.145,399.300 28.900 C 399.025 28.808,398.800 28.208,398.800 27.567 C 398.800 26.925,398.620 26.400,398.400 26.400 C 398.180 26.400,398.000 25.961,398.000 25.424 C 398.000 24.887,397.820 24.336,397.600 24.200 C 397.380 24.064,397.200 23.603,397.200 23.176 C 397.200 22.749,397.020 22.400,396.800 22.400 C 396.580 22.400,396.400 22.040,396.400 21.600 C 396.400 21.160,396.220 20.800,396.000 20.800 C 395.780 20.800,395.600 20.480,395.600 20.088 C 395.600 19.697,395.240 19.117,394.800 18.800 C 394.360 18.483,394.000 17.969,394.000 17.659 C 394.000 17.348,393.684 16.803,393.297 16.447 C 392.911 16.091,392.342 15.309,392.034 14.708 C 391.467 13.603,385.439 7.601,384.895 7.599 C 384.733 7.599,383.970 7.059,383.200 6.400 C 382.430 5.741,381.575 5.201,381.300 5.201 C 381.025 5.200,380.800 5.020,380.800 4.800 C 380.800 4.580,380.440 4.400,380.000 4.400 C 379.560 4.400,379.200 4.220,379.200 4.000 C 379.200 3.780,378.840 3.600,378.400 3.600 C 377.960 3.600,377.600 3.420,377.600 3.200 C 377.600 2.980,377.240 2.800,376.800 2.800 C 376.360 2.800,376.000 2.620,376.000 2.400 C 376.000 2.180,375.561 2.000,375.024 2.000 C 374.487 2.000,373.936 1.820,373.800 1.600 C 373.664 1.380,373.128 1.200,372.610 1.200 C 372.091 1.200,371.592 0.975,371.500 0.700 C 371.341 0.222,34.382 -0.183,30.400 0.291 M303.400 192.400 L 303.400 354.600 277.800 354.600 L 252.200 354.600 252.098 192.800 C 252.041 103.810,252.081 30.774,252.186 30.497 C 252.337 30.099,257.691 30.016,277.889 30.097 L 303.400 30.200 303.400 192.400 "
       stroke="none"
       fill="#4484b4"
       fill-rule="evenodd" />
  </g>
  <path
     style="fill:#ffffff;stroke-width:0.453001"
     d="m 46.023381,399.45032 c -0.356776,-0.14122 3.022422,-2.06805 7.701019,-4.39113 14.887473,-7.39215 25.233333,-15.147 33.756487,-25.30253 11.819811,-14.08359 17.134113,-28.65013 20.073013,-55.02022 2.34128,-21.00787 2.70057,-41.42748 3.05298,-173.51334 l 0.29641,-111.098525 h 25.29581 25.2958 l -0.002,136.466595 c -0.001,90.61741 -0.16104,138.59734 -0.47568,142.8086 -0.92886,12.43202 -3.57903,29.32614 -5.93369,37.8256 -1.97075,7.11367 -6.44914,17.04752 -10.90255,24.18377 -5.24571,8.40585 -13.68584,18.50522 -19.3614,23.16766 -1.81116,1.48785 -3.91138,3.26578 -4.66717,3.95095 l -1.37414,1.24575 -36.059658,-0.0357 c -19.832841,-0.0197 -36.345766,-0.14903 -36.695421,-0.28744 z"
     id="path12" />
  <path
     style="fill:#ffffff;stroke-width:0.453001"
     d="m 252.3494,215.66082 c -0.18373,-76.3469 -0.1849,-149.196023 -0.003,-161.886928 l 0.33146,-23.074372 3.40079,-0.287472 c 4.40163,-0.372074 21.75292,-0.366026 35.99343,0.01255 l 11.21178,0.298055 V 192.59802 354.47339 h -25.30041 -25.3004 z"
     id="path14" />
</svg>
